HIERARCHY
ROOT Hips
{
	OFFSET 0.00000 0.00000 0.00000
	CHANNELS 6 Xposition Yposition Zposition Zrotation Yrotation Xrotation 
	JOINT LHipJoint
	{
		OFFSET 0 0 0
		CHANNELS 3 Zrotation Yrotation Xrotation
		JOINT LeftHip
		{
			OFFSET 1.37590 -1.78394 0.89329
			CHANNELS 3 Zrotation Yrotation Xrotation
			JOINT LeftKnee
			{
				OFFSET 2.47928 -6.81178 0.00000
				CHANNELS 3 Zrotation Yrotation Xrotation
				JOINT LeftAnkle
				{
					OFFSET 2.63345 -7.23535 0.00000
					CHANNELS 3 Zrotation Yrotation Xrotation
					JOINT LeftToe
					{
						OFFSET 0.23938 -0.65768 2.27012
						CHANNELS 3 Zrotation Yrotation Xrotation
						End Site
						{
							OFFSET 0.00000 -0.00000 1.18363
						}
					}
				}
			}
		}
	}
	JOINT RHipJoint
	{
		OFFSET 0 0 0
		CHANNELS 3 Zrotation Yrotation Xrotation
		JOINT RightHip
		{
			OFFSET -1.33617 -1.78394 0.89329
			CHANNELS 3 Zrotation Yrotation Xrotation
			JOINT RightKnee
			{
				OFFSET -2.56922 -7.05888 0.00000
				CHANNELS 3 Zrotation Yrotation Xrotation
				JOINT RightAnkle
				{
					OFFSET -2.56568 -7.04915 0.00000
					CHANNELS 3 Zrotation Yrotation Xrotation
					JOINT RightToe
					{
						OFFSET -0.27533 -0.75646 2.18105
						CHANNELS 3 Zrotation Yrotation Xrotation
						End Site
						{
							OFFSET -0.00000 -0.00000 1.15233
						}
					}
				}
			}
		}
	}
	JOINT lowerback
	{
		OFFSET 0 0 0
		CHANNELS 3 Zrotation Yrotation Xrotation
		JOINT Chest
		{
			OFFSET 0.06190 2.15152 -0.00935
			CHANNELS 3 Zrotation Yrotation Xrotation
			JOINT Chest2
			{
				OFFSET 0.06334 2.15332 0.00872
				CHANNELS 3 Zrotation Yrotation Xrotation
				JOINT lowerneck
				{
					OFFSET 0 0 0
					CHANNELS 3 Zrotation Yrotation Xrotation
					JOINT Neck
					{
						OFFSET -0.04202 1.66908 0.23524
						CHANNELS 3 Zrotation Yrotation Xrotation
						JOINT Head
						{
							OFFSET 0.07510 1.69357 -0.24440
							CHANNELS 3 Zrotation Yrotation Xrotation
							End Site
							{
								OFFSET 0.02556 1.71719 -0.11000
							}
						}
					}
				}
				JOINT LeftCollar
				{
					OFFSET 0 0 0
					CHANNELS 3 Zrotation Yrotation Xrotation
					JOINT LeftShoulder
					{
						OFFSET 3.67168 1.26306 -0.41342
CHANNELS 3 Zrotation Xrotation Yrotation
						JOINT LeftElbow
						{
OFFSET 0 -4.685100 -0.000000
CHANNELS 3 Zrotation Xrotation Yrotation
							JOINT LeftWrist
							{
OFFSET 0 -3.396260 -0.000000
CHANNELS 3 Zrotation Xrotation Yrotation
								JOINT lhand
								{
									OFFSET 0 0 0
CHANNELS 3 Zrotation Xrotation Yrotation
									JOINT LFingers
									{
OFFSET 0 -0.486080 -0.000000
CHANNELS 3 Zrotation Xrotation Yrotation
										End Site
										{
OFFSET 0 -0.391890 -0.000000
										}
									}
								}
								JOINT LThumb
								{
OFFSET 0 0.000000 0.000000
CHANNELS 3 Zrotation Xrotation Yrotation
									End Site
									{
OFFSET 0 -0.397870 0.397870
									}
								}
							}
						}
					}
				}
				JOINT RightCollar
				{
					OFFSET 0 0 0
					CHANNELS 3 Zrotation Yrotation Xrotation
					JOINT RightShoulder
					{
						OFFSET -3.04136 1.42992 -0.76390
CHANNELS 3 Zrotation Xrotation Yrotation
						JOINT RightElbow
						{
OFFSET 0 -5.555760 -0.000000
CHANNELS 3 Zrotation Xrotation Yrotation
							JOINT RightWrist
							{
OFFSET 0 -3.327740 -0.000000
CHANNELS 3 Zrotation Xrotation Yrotation
								JOINT rhand
								{
									OFFSET 0 0 0
CHANNELS 3 Zrotation Xrotation Yrotation
									JOINT RFingers
									{
OFFSET 0 -0.507630 -0.000000
CHANNELS 3 Zrotation Xrotation Yrotation
										End Site
										{
OFFSET 0 -0.409260 -0.000000
										}
									}
								}
								JOINT RThumb
								{
OFFSET 0 0.000000 0.000000
CHANNELS 3 Zrotation Xrotation Yrotation
									End Site
									{
OFFSET 0 -0.415510 0.415510
									}
								}
							}
						}
					}
				}
			}
		}
	}
}
MOTION
Frames: 8
Frame Time: 0.008333333333333333
42.606300 17.506200 5.194700 -80.413100 -81.209600 90.414900 0.000000 0.000000 0.000000 -1.909400 -7.686600 -40.771900 8.119400 16.206400 52.991600 0.102700 2.049200 -7.172100 2.952100 -10.617000 -30.999000 0.000000 0.000000 0.000000 33.464500 4.620500 -5.257900 -0.835300 -5.830300 16.292700 -0.863900 -5.557000 -20.424100 -0.782600 -5.647800 15.765900 6.220900 0.724100 -0.270000 3.724500 0.875700 -0.419500 0.346900 0.386200 -0.242100 -6.992500 -1.318500 -20.611000 6.299800 -0.965400 14.665500 3.135800 -0.213200 7.979000 -0.000000 -0.000000 0.000000 -2.406600 -1.866800 -12.805900 18.957800 -29.366200 5.010100 9.552400 23.583100 -20.081800 0.000000 0.000000 0.000000 -7.125000 0.000000 0.000000 -18.499200 49.400200 2.070900 -0.000000 -0.000000 0.000000 -5.453700 -7.750000 33.205100 -20.408800 -31.131700 -5.741200 -22.240000 19.716700 26.621300 0.000000 0.000000 0.000000 7.125000 0.000000 -0.000000 8.811000 58.198800 -2.859600
42.536898 17.505415 5.190550 -79.577153 -81.304491 89.764683 0.000000 0.000000 0.000000 -1.909351 -7.873748 -41.151265 7.711667 15.902602 51.516510 0.085696 2.673440 -7.183672 3.033276 -10.748804 -31.437207 0.000000 0.000000 0.000000 33.352638 4.473479 -5.109735 -0.810397 -5.744992 16.046223 -0.885656 -5.523106 -20.608497 -0.772358 -5.611369 15.660942 6.243561 0.705590 -0.283756 3.606269 0.858074 -0.490276 0.212244 0.376353 -0.306001 -6.964380 -1.318624 -20.708777 6.313747 -0.969106 14.642392 3.135748 -0.210225 7.988136 0.000000 0.000000 0.000000 -2.356534 -1.469351 -12.650612 19.312041 -29.804461 5.185116 9.409823 22.920466 -20.370485 0.000000 0.000000 0.000000 -7.125000 0.000000 0.000000 -18.758257 49.653424 2.221979 0.000000 0.000000 0.000000 -5.368517 -7.752694 33.673319 -20.803736 -31.598467 -5.946790 -19.996960 18.632982 26.894573 0.000000 0.000000 0.000000 7.125000 0.000000 0.000000 11.373113 57.974933 -3.642053
42.464831 17.499450 5.187145 -80.517490 -81.206376 90.909959 0.000000 0.000000 0.000000 -1.603406 -7.835775 -41.529861 7.271156 15.555224 49.891212 0.067860 3.156098 -7.099481 3.088343 -10.836553 -31.730880 0.000000 0.000000 0.000000 33.490777 4.536225 -4.956697 -0.795389 -5.692473 15.894814 -0.914889 -5.392032 -20.795949 -0.761422 -5.572439 15.548843 6.452623 0.777398 -0.304804 3.555504 0.957163 -0.583525 0.044138 0.421487 -0.382168 -6.907428 -1.295638 -20.708267 6.253033 -0.940601 14.589667 3.108475 -0.199229 7.967700 0.000000 0.000000 0.000000 -2.342326 -1.033295 -12.502182 19.663123 -30.234138 5.360758 9.431789 22.210284 -20.650151 0.000000 0.000000 0.000000 -7.125000 0.000000 0.000000 -18.861993 49.922511 2.363290 0.000000 0.000000 0.000000 -5.317905 -7.613096 34.284442 -21.207045 -32.068800 -6.159713 -18.467222 18.389585 27.139331 0.000000 0.000000 0.000000 7.125000 0.000000 0.000000 13.138522 57.881856 -4.190665
42.388767 17.497383 5.183924 -79.614297 -81.371534 90.164829 0.000000 0.000000 0.000000 -1.680846 -8.128814 -41.718123 6.817112 15.174329 48.176332 0.050184 3.663438 -7.080663 3.007733 -10.707479 -31.299715 0.000000 0.000000 0.000000 33.314221 4.421225 -4.714597 -0.767095 -5.592906 15.607587 -0.932347 -5.435080 -20.985605 -0.758659 -5.562508 15.520092 6.410365 0.778076 -0.373265 3.398639 0.958087 -0.603358 -0.093180 0.424230 -0.362090 -6.931882 -1.325409 -20.861513 6.384385 -0.989777 14.592952 3.152162 -0.208361 7.999293 0.000000 0.000000 0.000000 -2.259241 -0.694377 -12.446763 20.023093 -30.669869 5.543249 9.468091 21.453806 -20.646730 0.000000 0.000000 0.000000 -7.125000 0.000000 0.000000 -18.826480 49.924765 2.359684 0.000000 0.000000 0.000000 -5.207320 -7.658217 34.741740 -21.753986 -32.697108 -6.452774 -17.009970 17.300669 27.555478 0.000000 0.000000 0.000000 7.125000 0.000000 0.000000 14.919980 57.972129 -4.806590
42.310178 17.492478 5.184664 -80.539893 -81.423325 91.200002 0.000000 0.000000 0.000000 -1.603306 -8.178430 -41.779454 6.332899 14.741117 46.299425 0.023791 4.257030 -6.927116 2.963876 -10.636328 -31.062817 0.000000 0.000000 0.000000 33.275043 4.423874 -4.410418 -0.747059 -5.520566 15.399470 -0.947219 -5.395621 -21.097380 -0.740614 -5.497545 15.333304 6.768630 0.846977 -0.219073 3.104658 1.077608 -0.724352 -0.596809 0.477265 -0.556365 -6.731666 -1.326589 -20.800138 6.369337 -1.049324 14.495980 3.104835 -0.227264 7.959816 0.000000 0.000000 0.000000 -1.905790 -0.186438 -12.415720 20.380701 -31.098038 5.726844 9.372328 20.680992 -20.751876 0.000000 0.000000 0.000000 -7.125000 0.000000 0.000000 -18.963455 50.010005 2.418841 0.000000 0.000000 0.000000 -4.877078 -7.416220 35.287489 -22.319235 -33.335731 -6.760529 -15.235252 16.487936 27.882458 0.000000 0.000000 0.000000 7.125000 0.000000 0.000000 16.979078 57.901484 -5.466115
42.228884 17.485567 5.181503 -79.254557 -81.455781 90.011127 0.000000 0.000000 0.000000 -1.508662 -8.515977 -41.790895 5.846877 14.275495 44.358809 0.006394 4.581234 -6.766747 2.913638 -10.553439 -30.788692 0.000000 0.000000 0.000000 33.258975 4.320878 -4.016913 -0.709403 -5.382865 15.003882 -0.960151 -5.510510 -21.290066 -0.763414 -5.579844 15.569968 6.789058 0.767659 -0.248010 3.041125 0.969809 -0.705976 -0.673080 0.425295 -0.526270 -6.348652 -1.333901 -20.643130 5.745958 -1.043543 14.037670 2.823540 -0.265765 7.773992 0.000000 0.000000 0.000000 -1.877765 0.075290 -12.215452 20.717878 -31.497190 5.901989 9.342816 20.036420 -21.009513 0.000000 0.000000 0.000000 -7.125000 0.000000 0.000000 -19.108390 50.249776 2.554345 0.000000 0.000000 0.000000 -4.783957 -7.687029 35.824900 -22.542821 -33.585035 -6.883718 -13.359969 15.687811 27.688108 0.000000 0.000000 0.000000 7.125000 0.000000 0.000000 18.835570 57.302359 -5.862430
42.147774 17.475562 5.180452 -79.177231 -81.478334 90.117475 0.000000 0.000000 0.000000 -1.321724 -8.764730 -41.847796 5.357000 13.770929 42.335247 -0.010839 4.903223 -6.606832 2.786007 -10.339798 -30.084601 0.000000 0.000000 0.000000 33.266633 4.342664 -3.799582 -0.693523 -5.323495 14.833658 -0.975951 -5.595774 -21.488359 -0.746316 -5.518320 15.392890 6.870767 0.815198 -0.333146 2.942503 1.027221 -0.713886 -0.818520 0.455274 -0.479856 -6.296495 -1.350639 -20.763506 5.691200 -1.059898 13.925243 2.793999 -0.273784 7.757293 0.000000 0.000000 0.000000 -1.805689 0.322371 -12.191623 21.054011 -31.891007 6.078620 9.403993 19.551088 -21.343507 0.000000 0.000000 0.000000 -7.125000 0.000000 0.000000 -19.205099 50.575714 2.726034 0.000000 0.000000 0.000000 -4.674900 -8.027312 36.213907 -22.688016 -33.745042 -6.964576 -15.249877 16.178048 25.416523 0.000000 0.000000 0.000000 7.125000 0.000000 0.000000 15.528965 55.521387 -4.081450
42.062294 17.463891 5.181264 -80.228559 -81.521766 91.316393 0.000000 0.000000 0.000000 -1.196769 -8.809504 -41.803505 4.843218 13.199839 40.130324 -0.050680 5.393493 -5.801481 2.646522 -10.098157 -29.296473 0.000000 0.000000 0.000000 33.253952 4.396312 -3.515047 -0.678318 -5.265944 14.668720 -0.999568 -5.560464 -21.677147 -0.738259 -5.488897 15.308358 6.939384 0.929973 -0.413072 2.843157 1.173316 -0.702071 -0.956974 0.530637 -0.410093 -6.632180 -1.322035 -21.193929 6.289375 -1.019789 14.200034 3.062774 -0.208337 7.924276 0.000000 0.000000 0.000000 -1.726113 0.556533 -12.251441 21.383896 -32.273419 6.253818 9.435208 19.028416 -21.552073 0.000000 0.000000 0.000000 -7.125000 0.000000 0.000000 -19.273571 50.778169 2.834816 0.000000 0.000000 0.000000 -4.649752 -8.095523 36.677725 -23.191016 -34.295917 -7.246135 -14.687459 16.064078 25.935712 0.000000 0.000000 0.000000 7.125000 0.000000 0.000000 16.400566 55.907805 -4.492967
